# xmcd
# 
# Track frame offsets:
#     150
#     24485
#     49555
#     67165
# 
# Disc length: 1216
# 
# Revision: 1
# Processed by: cddbd v1.5.2PL0 Copyright (c) Steve Scherf et al.
# Submitted via: fre:ac v1.0.17
# 
DISCID=2f04be04
DTITLE=J Soul Brothers - Unfair World
DYEAR=0
DGENRE=
TTITLE0=Unfair World
TTITLE1=Unfair World -Unplugged Version-
TTITLE2=BURNING UP -PKCZ Remix
TTITLE3=Ubfair World -Instrumental-
EXTD=
EXTT0=
EXTT1=
EXTT2=
EXTT3=
PLAYORDER=
